<svg width="29" height="28" viewBox="0 0 29 28" fill="none" xmlns="http://www.w3.org/2000/svg">
<path fill-rule="evenodd" clip-rule="evenodd" d="M16.4542 24.1085V23.6568C16.4579 22.3717 17.4988 21.3308 18.7839 21.3271H22.4687C23.7539 21.3308 24.7947 22.3717 24.7984 23.6568V24.1085C24.7984 24.4158 24.5494 24.6648 24.2421 24.6648H17.0105C16.7033 24.6648 16.4542 24.4158 16.4542 24.1085Z" stroke="#A8FF36" stroke-width="1.30324" stroke-linecap="round" stroke-linejoin="round"/>
<path fill-rule="evenodd" clip-rule="evenodd" d="M18.4845 16.9214C18.2148 15.9549 18.6254 14.9274 19.4869 14.4129C20.3485 13.8984 21.4477 14.0242 22.1708 14.7201C22.8938 15.4159 23.0616 16.5095 22.5805 17.3901C22.0994 18.2707 21.0884 18.7204 20.1122 18.4879C19.3252 18.3004 18.702 17.7006 18.4845 16.9214Z" stroke="#A8FF36" stroke-width="1.30324" stroke-linecap="round" stroke-linejoin="round"/>
<path fill-rule="evenodd" clip-rule="evenodd" d="M3.65979 21.8834V21.4317C3.66346 20.1466 4.70435 19.1057 5.98949 19.1021H9.67428C10.9594 19.1057 12.0003 20.1466 12.004 21.4317V21.8834C12.004 22.1907 11.7549 22.4397 11.4477 22.4397H4.21607C3.90884 22.4397 3.65979 22.1907 3.65979 21.8834Z" stroke="#A8FF36" stroke-width="1.30324" stroke-linecap="round" stroke-linejoin="round"/>
<path fill-rule="evenodd" clip-rule="evenodd" d="M5.69018 14.6963C5.42046 13.7298 5.83103 12.7023 6.69256 12.1878C7.55408 11.6733 8.65337 11.7991 9.37638 12.495C10.0994 13.1908 10.2672 14.2845 9.7861 15.165C9.30499 16.0456 8.294 16.4953 7.31785 16.2628C6.53087 16.0753 5.90763 15.4755 5.69018 14.6963Z" stroke="#A8FF36" stroke-width="1.30324" stroke-linecap="round" stroke-linejoin="round"/>
<path d="M20.3148 6.82496C20.3362 6.80399 20.3705 6.80422 20.3916 6.82548C20.4127 6.84674 20.4127 6.88105 20.3916 6.90231C20.3705 6.92357 20.3362 6.92381 20.3148 6.90284C20.304 6.89274 20.2979 6.87865 20.2979 6.8639C20.2979 6.84915 20.304 6.83505 20.3148 6.82496" stroke="#A8FF36" stroke-width="1.30324" stroke-linecap="round" stroke-linejoin="round"/>
<path d="M17.4166 6.82496C17.438 6.80399 17.4723 6.80422 17.4934 6.82548C17.5145 6.84674 17.5145 6.88105 17.4934 6.90231C17.4723 6.92357 17.438 6.92381 17.4166 6.90284C17.4058 6.89274 17.3997 6.87865 17.3997 6.8639C17.3997 6.84915 17.4058 6.83505 17.4166 6.82496" stroke="#A8FF36" stroke-width="1.30324" stroke-linecap="round" stroke-linejoin="round"/>
<path d="M14.5184 6.82496C14.5398 6.80399 14.5741 6.80422 14.5952 6.82548C14.6163 6.84674 14.6163 6.88105 14.5952 6.90231C14.5741 6.92357 14.5398 6.92381 14.5184 6.90284C14.5076 6.89274 14.5015 6.87865 14.5015 6.8639C14.5015 6.84915 14.5076 6.83505 14.5184 6.82496" stroke="#A8FF36" stroke-width="1.30324" stroke-linecap="round" stroke-linejoin="round"/>
<path fill-rule="evenodd" clip-rule="evenodd" d="M14.7854 10.2016V11.8704C14.7848 12.0857 14.9085 12.282 15.103 12.3744C15.2975 12.4668 15.5278 12.4386 15.6943 12.3021L17.9773 10.443C18.1668 10.286 18.4054 10.2006 18.6515 10.2016H21.4607C22.6896 10.2016 23.6858 9.20538 23.6858 7.97648V5.75136C23.6858 4.52246 22.6896 3.52625 21.4607 3.52625H13.6728C12.4439 3.52625 11.4477 4.52246 11.4477 5.75136V7.97648C11.4477 9.20538 12.4439 10.2016 13.6728 10.2016H14.7854Z" stroke="#A8FF36" stroke-width="1.30324" stroke-linecap="round" stroke-linejoin="round"/>
</svg>
